<svg width="16" height="19" viewBox="0 0 16 19" fill="none" xmlns="http://www.w3.org/2000/svg">
<g clip-path="url(#clip0_260_1215)">
<path d="M5.715 0.238641C7.73785 0.593877 8.46095 2.59508 8.7593 4.41218C9.04058 6.12901 10.3771 3.62777 10.6084 3.32162" stroke="#8B8B91" stroke-width="0.418605"/>
<path d="M10.6081 3.32167C10.9408 2.70329 11.4414 2.21129 12.11 1.8457" stroke="#88868B" stroke-width="0.418605"/>
<path d="M12.1103 1.84586L12.9649 1.19632C13.2673 0.965848 13.6071 0.968785 13.9843 1.20513C14.9439 1.80628 15.3936 2.52504 15.4358 3.66709C15.4864 5.06063 15.3484 6.43812 15.0219 7.79955" stroke="#8B8B91" stroke-width="0.418605"/>
<path d="M15.0215 7.79932C14.536 9.75143 13.7891 11.5986 12.7806 13.3407C11.4519 15.6393 8.80231 18.3847 5.72941 17.8027" stroke="#828181" stroke-width="0.418605"/>
<path d="M5.73032 17.8027C4.87349 17.8396 4.13325 17.5819 3.50958 17.0299C0.63518 14.4857 0.655015 10.3299 1.2831 6.87623C1.78285 4.14343 2.2319 0.91422 5.79791 0.238037" stroke="#8B8B91" stroke-width="0.418605"/>
<path d="M5.72945 17.8029C6.25035 17.706 6.77252 17.6177 7.29597 17.5381C7.72589 17.4742 8.09955 17.3585 8.41696 17.1914C10.0688 16.3271 11.351 15.2646 12.2795 13.6505C13.4548 11.609 14.0234 9.89864 14.7141 7.91747C14.7247 7.88794 14.7403 7.86174 14.7595 7.84112C14.7788 7.8205 14.8011 7.80605 14.8246 7.79904C14.8877 7.77901 14.9533 7.77915 15.0215 7.79947" stroke="#DE1C59" stroke-width="0.418605"/>
<path d="M12.11 1.8457C11.9177 2.54045 11.5072 3.05722 10.8785 3.39603C10.7949 3.44158 10.7048 3.41679 10.6081 3.32167" stroke="#F14657" stroke-width="0.418605"/>
<path d="M5.40362 0.240638L4.90479 0.243949C1.35748 0.920008 0.910901 4.1492 0.413865 6.88198C-0.210808 10.3356 -0.230389 14.4914 2.62903 17.0358C3.24945 17.5878 3.98583 17.8454 4.83816 17.8086C5.35632 17.7117 5.87575 17.6235 6.39644 17.5439C6.82411 17.4799 7.19581 17.3643 7.51155 17.1972C9.15474 16.333 10.4302 15.2705 11.3537 13.6564C12.5228 11.615 13.0883 9.90466 13.7754 7.92351C13.7859 7.89398 13.8014 7.86778 13.8205 7.84716C13.8397 7.82652 13.8619 7.8121 13.8853 7.80509C13.948 7.78506 14.0133 7.7852 14.0812 7.80552C14.4059 6.44411 14.5431 5.06662 14.4927 3.67308C14.4507 2.53103 14.0033 1.81225 13.0488 1.21107C12.6735 0.974711 12.3355 0.971762 12.0347 1.20222L11.1846 1.85173C10.9933 2.54648 10.585 3.06324 9.95958 3.40201C9.87644 3.44756 9.78679 3.42277 9.69062 3.32764C9.46046 3.63379 8.13108 6.13497 7.85121 4.41814C7.55435 2.60103 7.41588 0.595944 5.40362 0.240638Z" fill="#EF4444"/>
<path d="M11.1847 1.85181C10.5196 2.21737 10.0216 2.70935 9.69069 3.32772C9.78684 3.42284 9.87651 3.44764 9.95965 3.40209C10.585 3.0633 10.9934 2.54654 11.1847 1.85181Z" fill="#FB7482"/>
<path d="M14.0812 7.80557C14.0134 7.78525 13.9481 7.78511 13.8853 7.80514C13.8619 7.81215 13.8397 7.82659 13.8206 7.84721C13.8014 7.86783 13.786 7.89404 13.7754 7.92356C13.0884 9.90471 12.5229 11.615 11.3537 13.6565C10.4302 15.2705 9.15479 16.3331 7.51161 17.1973C7.19587 17.3643 6.82415 17.48 6.39647 17.5439C5.87578 17.6236 5.35635 17.7118 4.83819 17.8087C7.89501 18.3907 10.5307 15.6455 11.8523 13.3468C12.8554 11.6048 13.5984 9.75766 14.0812 7.80557Z" fill="#EA4335"/>
</g>
<defs>
<clipPath id="clip0_260_1215">
<rect width="15.6" height="18" fill="white" transform="matrix(-0.999978 0.00663714 0.00663714 0.999978 15.5997 0)"/>
</clipPath>
</defs>
</svg>
