<svg width="82" height="38" viewBox="0 0 82 38" fill="none" xmlns="http://www.w3.org/2000/svg">
<path d="M2.2866 26.0134H0L5.13787 11.7361H7.62663L12.7645 26.0134H10.4779L6.44151 14.3295H6.32997L2.2866 26.0134ZM2.67002 20.4224H10.0875V22.235H2.67002V20.4224Z" fill="white"/>
<path d="M18.1136 26.0134V11.7361H23.2027C24.3134 11.7361 25.2336 11.9383 25.9633 12.3427C26.693 12.747 27.2391 13.3 27.6016 14.0018C27.9641 14.699 28.1453 15.4844 28.1453 16.3581C28.1453 17.2365 27.9618 18.0266 27.5946 18.7284C27.2321 19.4255 26.6837 19.9786 25.9494 20.3876C25.2197 20.7919 24.3018 20.9941 23.1957 20.9941H19.6961V19.1676H23.0005C23.7023 19.1676 24.2716 19.0467 24.7085 18.8051C25.1453 18.5588 25.466 18.2241 25.6705 17.8012C25.875 17.3783 25.9772 16.8973 25.9772 16.3581C25.9772 15.819 25.875 15.3403 25.6705 14.922C25.466 14.5038 25.143 14.1761 24.7015 13.9391C24.2646 13.7021 23.6883 13.5835 22.9726 13.5835H20.2677V26.0134H18.1136Z" fill="white"/>
<g filter="url(#filter0_d_11_125)">
<path fill-rule="evenodd" clip-rule="evenodd" d="M47.0363 30.223C47.4272 29.9066 47.4755 29.3474 47.1442 28.974L39.0368 19.838H36.7551L33.7002 23.453C33.3783 23.8339 33.4407 24.3918 33.8395 24.6991C34.2383 25.0065 34.8225 24.9469 35.1443 24.566L37.6421 21.6102H38.177L45.7285 30.1199C46.0598 30.4932 46.6453 30.5394 47.0363 30.223Z" fill="#0EA5E9"/>
<path fill-rule="evenodd" clip-rule="evenodd" d="M47.0363 30.223C47.4272 29.9066 47.4755 29.3474 47.1442 28.974L39.0368 19.838H36.7551L33.7002 23.453C33.3783 23.8339 33.4407 24.3918 33.8395 24.6991C34.2383 25.0065 34.8225 24.9469 35.1443 24.566L37.6421 21.6102H38.177L45.7285 30.1199C46.0598 30.4932 46.6453 30.5394 47.0363 30.223Z" stroke="#0EA5E9" stroke-width="0.76285" stroke-linecap="round"/>
</g>
<g filter="url(#filter1_d_11_125)">
<path fill-rule="evenodd" clip-rule="evenodd" d="M47.0465 7.52002C47.4252 7.82669 47.4721 8.36874 47.1513 8.73072L39.0145 17.9115H36.7533L33.6937 14.2863C33.382 13.917 33.4425 13.3762 33.8288 13.0783C34.2151 12.7804 34.7808 12.8383 35.0925 13.2075L37.6126 16.1935H38.1816L45.78 7.62017C46.1008 7.25819 46.6679 7.21335 47.0465 7.52002Z" fill="#F97316"/>
<path fill-rule="evenodd" clip-rule="evenodd" d="M47.0465 7.52002C47.4252 7.82669 47.4721 8.36874 47.1513 8.73072L39.0145 17.9115H36.7533L33.6937 14.2863C33.382 13.917 33.4425 13.3762 33.8288 13.0783C34.2151 12.7804 34.7808 12.8383 35.0925 13.2075L37.6126 16.1935H38.1816L45.78 7.62017C46.1008 7.25819 46.6679 7.21335 47.0465 7.52002Z" stroke="#F97316" stroke-width="0.76285" stroke-linecap="round"/>
</g>
<path d="M65.5755 18.8748C65.5755 20.3992 65.2966 21.7098 64.7389 22.8066C64.1812 23.8988 63.4167 24.74 62.4454 25.3302C61.4787 25.9158 60.3795 26.2086 59.1479 26.2086C57.9117 26.2086 56.8079 25.9158 55.8365 25.3302C54.8698 24.74 54.1076 23.8965 53.5499 22.7997C52.9922 21.7028 52.7134 20.3945 52.7134 18.8748C52.7134 17.3504 52.9922 16.0421 53.5499 14.9499C54.1076 13.8531 54.8698 13.0119 55.8365 12.4263C56.8079 11.8361 57.9117 11.541 59.1479 11.541C60.3795 11.541 61.4787 11.8361 62.4454 12.4263C63.4167 13.0119 64.1812 13.8531 64.7389 14.9499C65.2966 16.0421 65.5755 17.3504 65.5755 18.8748ZM63.4423 18.8748C63.4423 17.7129 63.254 16.7346 62.8776 15.9399C62.5058 15.1405 61.9945 14.5363 61.3439 14.1273C60.6979 13.7137 59.9659 13.5069 59.1479 13.5069C58.3253 13.5069 57.591 13.7137 56.945 14.1273C56.299 14.5363 55.7877 15.1405 55.4113 15.9399C55.0395 16.7346 54.8536 17.7129 54.8536 18.8748C54.8536 20.0367 55.0395 21.0173 55.4113 21.8167C55.7877 22.6114 56.299 23.2156 56.945 23.6292C57.591 24.0382 58.3253 24.2427 59.1479 24.2427C59.9659 24.2427 60.6979 24.0382 61.3439 23.6292C61.9945 23.2156 62.5058 22.6114 62.8776 21.8167C63.254 21.0173 63.4423 20.0367 63.4423 18.8748Z" fill="white"/>
<path d="M70.9244 26.0134V11.7361H76.0135C77.1196 11.7361 78.0375 11.9267 78.7672 12.3078C79.5015 12.6889 80.0499 13.2164 80.4124 13.8903C80.7749 14.5595 80.9562 15.3334 80.9562 16.2117C80.9562 17.0855 80.7726 17.8546 80.4054 18.5192C80.0429 19.1792 79.4945 19.6928 78.7602 20.0599C78.0305 20.4271 77.1127 20.6106 76.0065 20.6106H72.1514V18.7563H75.8113C76.5085 18.7563 77.0755 18.6564 77.5123 18.4565C77.9539 18.2567 78.2769 17.9662 78.4814 17.5851C78.6859 17.204 78.7881 16.7462 78.7881 16.2117C78.7881 15.6726 78.6835 15.2055 78.4744 14.8105C78.2699 14.4155 77.9469 14.1134 77.5054 13.9042C77.0685 13.6904 76.4945 13.5835 75.7835 13.5835H73.0786V26.0134H70.9244ZM77.9725 19.5719L81.4999 26.0134H79.046L75.5883 19.5719H77.9725Z" fill="white"/>
<defs>
<filter id="filter0_d_11_125" x="26.1778" y="12.5215" width="28.5029" height="25.228" filterUnits="userSpaceOnUse" color-interpolation-filters="sRGB">
<feFlood flood-opacity="0" result="BackgroundImageFix"/>
<feColorMatrix in="SourceAlpha" type="matrix" values="0 0 0 0 0 0 0 0 0 0 0 0 0 0 0 0 0 0 127 0" result="hardAlpha"/>
<feOffset/>
<feGaussianBlur stdDeviation="3.4675"/>
<feComposite in2="hardAlpha" operator="out"/>
<feColorMatrix type="matrix" values="0 0 0 0 0.976471 0 0 0 0 0.45098 0 0 0 0 0.0862745 0 0 0 0.55 0"/>
<feBlend mode="normal" in2="BackgroundImageFix" result="effect1_dropShadow_11_125"/>
<feBlend mode="normal" in="SourceGraphic" in2="effect1_dropShadow_11_125" result="shape"/>
</filter>
<filter id="filter1_d_11_125" x="26.1779" y="-2.86102e-06" width="28.5029" height="25.228" filterUnits="userSpaceOnUse" color-interpolation-filters="sRGB">
<feFlood flood-opacity="0" result="BackgroundImageFix"/>
<feColorMatrix in="SourceAlpha" type="matrix" values="0 0 0 0 0 0 0 0 0 0 0 0 0 0 0 0 0 0 127 0" result="hardAlpha"/>
<feOffset/>
<feGaussianBlur stdDeviation="3.4675"/>
<feComposite in2="hardAlpha" operator="out"/>
<feColorMatrix type="matrix" values="0 0 0 0 0.054902 0 0 0 0 0.647059 0 0 0 0 0.913725 0 0 0 0.55 0"/>
<feBlend mode="normal" in2="BackgroundImageFix" result="effect1_dropShadow_11_125"/>
<feBlend mode="normal" in="SourceGraphic" in2="effect1_dropShadow_11_125" result="shape"/>
</filter>
</defs>
</svg>
