<svg width="65" height="27" viewBox="0 0 65 27" fill="none" xmlns="http://www.w3.org/2000/svg">
	<g clip-path="url(#clip0_11_136)">
		<path
			d="M11.0713 24.2811C10.4785 25.0807 9.69016 25.7189 8.77994 26.1363C7.86493 26.503 6.88396 26.6823 5.89663 26.6632C5.05107 26.6769 4.21214 26.5139 3.43484 26.185C2.73278 25.8863 2.10077 25.4477 1.5784 24.8966C1.06496 24.3401 0.668657 23.6884 0.412518 22.9794C0.134958 22.2245 -0.00472071 21.427 -2.31195e-05 20.6239C-0.0100518 19.7884 0.142165 18.9587 0.448392 18.1798C0.725413 17.4637 1.14815 16.8112 1.6905 16.2627C2.22867 15.7259 2.87274 15.3039 3.58281 15.0229C4.34074 14.7217 5.15143 14.5712 5.96838 14.5801C6.73485 14.5729 7.49573 14.7096 8.21045 14.9831C8.87611 15.2445 9.47488 15.6482 9.96376 16.1652C10.4706 16.7102 10.8556 17.3544 11.0938 18.0558C11.371 18.8747 11.5059 19.734 11.4929 20.5973V21.2128H2.07614C2.10765 21.7012 2.22921 22.1799 2.43487 22.6252C2.63325 23.0618 2.908 23.4605 3.2465 23.8029C3.58062 24.141 3.97811 24.4117 4.41686 24.5999C4.87827 24.802 5.37847 24.9032 5.88318 24.8966C6.62173 24.9197 7.35517 24.7679 8.02212 24.4538C8.63072 24.1334 9.164 23.6899 9.58709 23.1521L11.0713 24.2811ZM9.40324 19.5922C9.40747 19.1552 9.32406 18.7217 9.15783 18.3167C8.99159 17.9117 8.74581 17.5431 8.43466 17.2323C8.09195 16.9263 7.69116 16.6905 7.25551 16.5385C6.81985 16.3864 6.35797 16.3213 5.89663 16.3468C4.95781 16.2868 4.0327 16.5933 3.3206 17.2004C2.6085 17.8074 2.16642 18.6664 2.08959 19.5922H9.40324Z"
			fill="#F8F8F8" />
		<path
			d="M21.7883 17.7503C21.4261 17.299 20.9665 16.933 20.4431 16.6789C19.9438 16.4536 19.4001 16.3402 18.8512 16.3468C18.2613 16.3356 17.6758 16.4488 17.1338 16.6789C16.6553 16.8861 16.2329 17.2016 15.9006 17.5998C15.5728 18.0053 15.3249 18.4678 15.1697 18.9635C14.9998 19.5009 14.9151 20.061 14.9186 20.6239C14.9164 21.1881 15.0135 21.7484 15.2056 22.2798C15.3878 22.7774 15.6581 23.2392 16.0038 23.6435C16.34 24.0357 16.7595 24.3501 17.2324 24.5645C17.7408 24.7911 18.2935 24.9044 18.8512 24.8966C19.426 24.9231 19.9984 24.8064 20.5156 24.5573C21.0327 24.3081 21.4781 23.9345 21.8108 23.4709L23.2547 24.8213C22.7168 25.4413 22.0332 25.9217 21.2637 26.2204C19.6939 26.8108 17.9592 26.8108 16.3894 26.2204C15.6694 25.9447 15.019 25.5171 14.4837 24.9674C13.9546 24.4145 13.5403 23.7647 13.264 23.0547C12.9641 22.2786 12.812 21.4545 12.8156 20.6239C12.8125 19.8005 12.9646 18.9837 13.264 18.2152C13.5405 17.5009 13.9598 16.8489 14.4971 16.2981C15.0368 15.7514 15.6858 15.3216 16.4029 15.0362C17.1807 14.728 18.0133 14.5775 18.8512 14.5934C19.6882 14.5884 20.5187 14.7386 21.2996 15.0362C22.0742 15.3316 22.7683 15.8016 23.3264 16.4088L21.7883 17.7503Z"
			fill="#F8F8F8" />
		<path d="M26.6177 7.80139H24.6761V26.3709H26.6177V7.80139Z" fill="#F8F8F8" />
		<path
			d="M29.3263 16.3468C29.9226 15.7472 30.6517 15.2925 31.4562 15.0185C32.2568 14.7303 33.1018 14.5806 33.9539 14.5757C35.6788 14.5757 36.9224 14.9772 37.6847 15.7801C38.447 16.5829 38.8282 17.802 38.8282 19.4373V24.3741C38.8282 24.7018 38.8282 25.0427 38.8775 25.3969C38.9268 25.7511 38.9537 26.0699 39.003 26.3666H37.1376C37.0673 26.0764 37.0297 25.7794 37.0255 25.481C37.0255 25.1622 37.0255 24.8789 37.0255 24.6309H36.9762C36.59 25.2276 36.066 25.7253 35.4471 26.0832C34.7469 26.4749 33.9512 26.6694 33.1468 26.6455C32.58 26.6488 32.0156 26.5743 31.4697 26.4241C30.9766 26.2935 30.5127 26.0727 30.102 25.7733C29.7133 25.4919 29.3944 25.127 29.1693 24.7062C28.9289 24.2516 28.8086 23.7445 28.8195 23.2318C28.7716 22.4202 29.0376 21.621 29.5639 20.9958C30.0711 20.4507 30.7075 20.0384 31.4159 19.7959C32.1858 19.5242 32.9901 19.3588 33.8059 19.3045C34.6579 19.238 35.4426 19.2026 36.1556 19.2026H36.9045V18.8617C36.9295 18.5107 36.8744 18.1585 36.7433 17.8313C36.6121 17.5041 36.4082 17.2101 36.1466 16.9711C35.5388 16.5094 34.782 16.2813 34.0167 16.3291C33.3863 16.3309 32.7605 16.4356 32.1647 16.639C31.5682 16.8379 31.021 17.1593 30.5594 17.5821L29.3263 16.3468ZM34.9404 20.8409C33.9274 20.798 32.9172 20.9749 31.9809 21.3589C31.6459 21.4987 31.3619 21.7358 31.1665 22.0386C30.9711 22.3415 30.8735 22.6958 30.8867 23.0547C30.8586 23.3512 30.9116 23.6498 31.0402 23.9193C31.1687 24.1887 31.3682 24.4192 31.6177 24.5866C32.1724 24.9031 32.8071 25.0567 33.4472 25.0294C33.9554 25.0413 34.4601 24.9446 34.927 24.746C35.3297 24.574 35.6906 24.3189 35.9852 23.9978C36.2728 23.6799 36.4925 23.3079 36.6309 22.9041C36.7814 22.4762 36.866 22.0285 36.882 21.5758V20.8364L34.9404 20.8409Z"
			fill="#F8F8F8" />
		<path d="M43.5055 19.5878H41.5638V26.3666H43.5055V19.5878Z" fill="#F8F8F8" />
		<path
			d="M46.3661 19.5922C46.3661 14.5137 51.6261 14.3587 52.8816 14.7218L52.7605 16.6611C52.4213 16.5627 52.0693 16.5135 51.7157 16.515C50.52 16.515 49.653 16.8958 49.1149 17.6573C48.5275 18.5945 48.2457 19.6872 48.3078 20.7877V26.3886H46.3661V19.5922Z"
			fill="#F8F8F8" />
		<path
			d="M64.0874 24.2811C63.4945 25.0807 62.7062 25.7189 61.796 26.1363C60.881 26.5031 59.9 26.6823 58.9127 26.6632C58.0671 26.6765 57.2283 26.5136 56.4509 26.185C55.7495 25.8874 55.1188 25.4486 54.5989 24.8966C54.0826 24.3414 53.6846 23.6895 53.4286 22.9794C53.151 22.2245 53.0113 21.427 53.016 20.6239C53.0085 19.7886 53.1606 18.9594 53.4644 18.1799C53.7431 17.4645 54.1657 16.8124 54.7065 16.2627C55.2447 15.7259 55.8888 15.3039 56.5988 15.0229C57.3582 14.7214 58.1705 14.5709 58.9889 14.5802C59.7554 14.5727 60.5163 14.7094 61.231 14.9831C61.8973 15.2433 62.4963 15.6472 62.9843 16.1653C63.4911 16.7102 63.8761 17.3544 64.1143 18.0559C64.3915 18.8747 64.5265 19.734 64.5134 20.5973V21.2128H55.1191C55.1915 22.1845 55.6055 23.1006 56.2894 23.803C56.6236 24.141 57.0211 24.4117 57.4598 24.5999C57.9212 24.802 58.4214 24.9032 58.9261 24.8966C59.6647 24.9202 60.3983 24.7684 61.0651 24.4538C61.6737 24.1335 62.2069 23.6899 62.63 23.1521L64.0874 24.2811ZM62.4193 19.5923C62.4245 19.1551 62.3415 18.7213 62.1753 18.3162C62.009 17.911 61.7627 17.5426 61.4507 17.2323C61.108 16.9263 60.7072 16.6905 60.2715 16.5385C59.8359 16.3865 59.374 16.3213 58.9127 16.3468C57.9739 16.2868 57.0487 16.5934 56.3366 17.2004C55.6245 17.8075 55.1825 18.6664 55.1056 19.5923H62.4193Z"
			fill="#F8F8F8" />
	</g>
	<g filter="url(#filter0_d_11_136)">
		<path
			d="M41.6269 3.64307H43.7871C43.7877 4.70642 43.5753 5.75945 43.1621 6.74197C42.7489 7.72449 42.1429 8.61723 41.3788 9.36913C40.6148 10.121 39.7076 10.7174 38.7092 11.124C37.7107 11.5307 36.6407 11.7397 35.5601 11.7391V9.61331C37.1628 9.59338 38.6942 8.95797 39.8276 7.84262C40.961 6.72728 41.6067 5.22028 41.6269 3.64307Z"
			fill="url(#paint0_linear_11_136)" />
		<path
			d="M43.8008 3.64307H41.636C41.636 5.79026 42.5028 7.84951 44.0457 9.36781C45.5885 10.8861 47.6811 11.7391 49.863 11.7391V9.61331C48.2607 9.59335 46.7299 8.95779 45.5972 7.84233C44.4645 6.72686 43.8199 5.21987 43.8008 3.64307Z"
			fill="url(#paint1_linear_11_136)" />
		<path
			d="M43.8008 17.7467H41.636C41.636 15.5919 42.5028 13.5254 44.0457 12.0017C45.5885 10.4781 47.6811 9.62207 49.863 9.62207V11.7553C48.2604 11.7742 46.7288 12.4116 45.5959 13.5313C44.463 14.651 43.8187 16.1639 43.8008 17.7467Z"
			fill="url(#paint2_linear_11_136)" />
		<path
			d="M41.6269 17.7467H43.7871C43.7877 16.6796 43.5753 15.6228 43.1621 14.6368C42.7489 13.6508 42.1429 12.7549 41.3788 12.0004C40.6148 11.2458 39.7076 10.6474 38.7092 10.2393C37.7107 9.83122 36.6407 9.62147 35.5601 9.62207V11.7553C37.1632 11.7742 38.6953 12.4115 39.8289 13.531C40.9625 14.6505 41.6079 16.1635 41.6269 17.7467Z"
			fill="url(#paint3_linear_11_136)" />
	</g>
	<defs>
		<filter id="filter0_d_11_136" x="31.9171" y="1.07288e-05" width="21.589" height="21.3897"
			filterUnits="userSpaceOnUse" color-interpolation-filters="sRGB">
			<feFlood flood-opacity="0" result="BackgroundImageFix" />
			<feColorMatrix in="SourceAlpha" type="matrix" values="0 0 0 0 0 0 0 0 0 0 0 0 0 0 0 0 0 0 127 0"
				result="hardAlpha" />
			<feOffset />
			<feGaussianBlur stdDeviation="1.82153" />
			<feComposite in2="hardAlpha" operator="out" />
			<feColorMatrix type="matrix" values="0 0 0 0 0.054902 0 0 0 0 0.647059 0 0 0 0 0.913725 0 0 0 0.5 0" />
			<feBlend mode="normal" in2="BackgroundImageFix" result="effect1_dropShadow_11_136" />
			<feBlend mode="normal" in="SourceGraphic" in2="effect1_dropShadow_11_136" result="shape" />
		</filter>
		<linearGradient id="paint0_linear_11_136" x1="43.1621" y1="5.34523" x2="35.2797" y2="9.48167"
			gradientUnits="userSpaceOnUse">
			<stop stop-color="#1F41EB" />
			<stop offset="1" stop-color="#12BDF1" />
		</linearGradient>
		<linearGradient id="paint1_linear_11_136" x1="48.4095" y1="10.137" x2="43.0647" y2="4.45823"
			gradientUnits="userSpaceOnUse">
			<stop stop-color="#1F41EB" />
			<stop offset="1" stop-color="#12BDF1" />
		</linearGradient>
		<linearGradient id="paint2_linear_11_136" x1="46.1341" y1="17.45" x2="46.0367" y2="9.93515"
			gradientUnits="userSpaceOnUse">
			<stop stop-color="#1F41EB" />
			<stop offset="0.985" stop-color="#12BDF1" />
		</linearGradient>
		<linearGradient id="paint3_linear_11_136" x1="36.3741" y1="12.8261" x2="45.5072" y2="17.8693"
			gradientUnits="userSpaceOnUse">
			<stop stop-color="#1F41EB" />
			<stop offset="0.985" stop-color="#12BDF1" />
		</linearGradient>
		<clipPath id="clip0_11_136">
			<rect width="64.5" height="23.7632" fill="white" transform="translate(0 2.89996)" />
		</clipPath>
	</defs>
</svg>
