<svg width="84" height="26" viewBox="0 0 84 26" fill="none" xmlns="http://www.w3.org/2000/svg">
<g clip-path="url(#clip0_977_174)">
<path d="M3.2866 20.174H1L6.13787 5.89673H8.62663L13.7645 20.174H11.4779L7.44151 8.49006H7.32997L3.2866 20.174ZM3.67002 14.583H11.0875V16.3955H3.67002V14.583Z" fill="white"/>
<path d="M19.1136 20.174V5.89673H24.2026C25.3134 5.89673 26.2336 6.0989 26.9633 6.50323C27.6929 6.90757 28.239 7.46063 28.6015 8.16241C28.9641 8.85954 29.1453 9.64498 29.1453 10.5187C29.1453 11.3971 28.9617 12.1872 28.5946 12.889C28.2321 13.5861 27.6837 14.1392 26.9493 14.5481C26.2197 14.9525 25.3018 15.1547 24.1957 15.1547H20.6961V13.3282H24.0005C24.7022 13.3282 25.2716 13.2073 25.7084 12.9657C26.1453 12.7193 26.466 12.3847 26.6705 11.9618C26.875 11.5389 26.9772 11.0578 26.9772 10.5187C26.9772 9.9796 26.875 9.50091 26.6705 9.08263C26.466 8.66435 26.143 8.33669 25.7015 8.09967C25.2646 7.86264 24.6883 7.74413 23.9726 7.74413H21.2677V20.174H19.1136Z" fill="white"/>
<g filter="url(#filter0_d_977_174)">
<path fill-rule="evenodd" clip-rule="evenodd" d="M48.0363 24.3836C48.4272 24.0671 48.4755 23.508 48.1442 23.1346L40.0368 13.9985H37.7551L34.7002 17.6136C34.3783 17.9944 34.4407 18.5523 34.8395 18.8597C35.2383 19.167 35.8225 19.1075 36.1443 18.7266L38.6421 15.7708H39.177L46.7285 24.2805C47.0598 24.6538 47.6453 24.7 48.0363 24.3836Z" fill="#0EA5E9"/>
<path fill-rule="evenodd" clip-rule="evenodd" d="M48.0363 24.3836C48.4272 24.0671 48.4755 23.508 48.1442 23.1346L40.0368 13.9985H37.7551L34.7002 17.6136C34.3783 17.9944 34.4407 18.5523 34.8395 18.8597C35.2383 19.167 35.8225 19.1075 36.1443 18.7266L38.6421 15.7708H39.177L46.7285 24.2805C47.0598 24.6538 47.6453 24.7 48.0363 24.3836Z" stroke="#0EA5E9" stroke-width="0.76285" stroke-linecap="round"/>
</g>
<g filter="url(#filter1_d_977_174)">
<path fill-rule="evenodd" clip-rule="evenodd" d="M48.0466 1.6806C48.4252 1.98727 48.4721 2.52932 48.1513 2.8913L40.0145 12.0721H37.7533L34.6937 8.44687C34.382 8.07763 34.4425 7.53681 34.8288 7.23892C35.2151 6.94103 35.7809 6.99887 36.0925 7.36811L38.6126 10.3541H39.1816L46.78 1.78075C47.1008 1.41877 47.6679 1.37393 48.0466 1.6806Z" fill="#F97316"/>
<path fill-rule="evenodd" clip-rule="evenodd" d="M48.0466 1.6806C48.4252 1.98727 48.4721 2.52932 48.1513 2.8913L40.0145 12.0721H37.7533L34.6937 8.44687C34.382 8.07763 34.4425 7.53681 34.8288 7.23892C35.2151 6.94103 35.7809 6.99887 36.0925 7.36811L38.6126 10.3541H39.1816L46.78 1.78075C47.1008 1.41877 47.6679 1.37393 48.0466 1.6806Z" stroke="#F97316" stroke-width="0.76285" stroke-linecap="round"/>
</g>
<path d="M66.5754 13.0354C66.5754 14.5598 66.2966 15.8704 65.7389 16.9672C65.1812 18.0594 64.4167 18.9006 63.4453 19.4908C62.4786 20.0764 61.3795 20.3692 60.1479 20.3692C58.9116 20.3692 57.8078 20.0764 56.8365 19.4908C55.8698 18.9006 55.1076 18.0571 54.5499 16.9602C53.9922 15.8634 53.7133 14.5551 53.7133 13.0354C53.7133 11.511 53.9922 10.2027 54.5499 9.11052C55.1076 8.0137 55.8698 7.17249 56.8365 6.5869C57.8078 5.99666 58.9116 5.70154 60.1479 5.70154C61.3795 5.70154 62.4786 5.99666 63.4453 6.5869C64.4167 7.17249 65.1812 8.0137 65.7389 9.11052C66.2966 10.2027 66.5754 11.511 66.5754 13.0354ZM64.4422 13.0354C64.4422 11.8735 64.254 10.8952 63.8775 10.1004C63.5057 9.30107 62.9945 8.69689 62.3439 8.2879C61.6978 7.87427 60.9659 7.66745 60.1479 7.66745C59.3253 7.66745 58.591 7.87427 57.9449 8.2879C57.2989 8.69689 56.7877 9.30107 56.4113 10.1004C56.0394 10.8952 55.8535 11.8735 55.8535 13.0354C55.8535 14.1973 56.0394 15.1779 56.4113 15.9773C56.7877 16.772 57.2989 17.3762 57.9449 17.7898C58.591 18.1988 59.3253 18.4033 60.1479 18.4033C60.9659 18.4033 61.6978 18.1988 62.3439 17.7898C62.9945 17.3762 63.5057 16.772 63.8775 15.9773C64.254 15.1779 64.4422 14.1973 64.4422 13.0354Z" fill="white"/>
<path d="M71.9245 20.174V5.89673H77.0135C78.1197 5.89673 79.0375 6.08728 79.7672 6.46838C80.5015 6.84948 81.0499 7.37697 81.4124 8.05087C81.775 8.72012 81.9562 9.49393 81.9562 10.3723C81.9562 11.2461 81.7726 12.0152 81.4055 12.6798C81.043 13.3398 80.4946 13.8533 79.7602 14.2205C79.0306 14.5877 78.1127 14.7712 77.0066 14.7712H73.1514V12.9169H76.8114C77.5085 12.9169 78.0755 12.8169 78.5124 12.6171C78.9539 12.4172 79.2769 12.1268 79.4814 11.7457C79.6859 11.3646 79.7881 10.9068 79.7881 10.3723C79.7881 9.83321 79.6836 9.36613 79.4744 8.97108C79.2699 8.57604 78.9469 8.27395 78.5054 8.06481C78.0685 7.85102 77.4946 7.74413 76.7835 7.74413H74.0786V20.174H71.9245ZM78.9725 13.7325L82.5 20.174H80.0461L76.5883 13.7325H78.9725Z" fill="white"/>
</g>
<defs>
<filter id="filter0_d_977_174" x="27.1778" y="6.68213" width="28.5029" height="25.228" filterUnits="userSpaceOnUse" color-interpolation-filters="sRGB">
<feFlood flood-opacity="0" result="BackgroundImageFix"/>
<feColorMatrix in="SourceAlpha" type="matrix" values="0 0 0 0 0 0 0 0 0 0 0 0 0 0 0 0 0 0 127 0" result="hardAlpha"/>
<feOffset/>
<feGaussianBlur stdDeviation="3.4675"/>
<feComposite in2="hardAlpha" operator="out"/>
<feColorMatrix type="matrix" values="0 0 0 0 0.976471 0 0 0 0 0.45098 0 0 0 0 0.0862745 0 0 0 0.55 0"/>
<feBlend mode="normal" in2="BackgroundImageFix" result="effect1_dropShadow_977_174"/>
<feBlend mode="normal" in="SourceGraphic" in2="effect1_dropShadow_977_174" result="shape"/>
</filter>
<filter id="filter1_d_977_174" x="27.1779" y="-5.83942" width="28.5029" height="25.228" filterUnits="userSpaceOnUse" color-interpolation-filters="sRGB">
<feFlood flood-opacity="0" result="BackgroundImageFix"/>
<feColorMatrix in="SourceAlpha" type="matrix" values="0 0 0 0 0 0 0 0 0 0 0 0 0 0 0 0 0 0 127 0" result="hardAlpha"/>
<feOffset/>
<feGaussianBlur stdDeviation="3.4675"/>
<feComposite in2="hardAlpha" operator="out"/>
<feColorMatrix type="matrix" values="0 0 0 0 0.054902 0 0 0 0 0.647059 0 0 0 0 0.913725 0 0 0 0.55 0"/>
<feBlend mode="normal" in2="BackgroundImageFix" result="effect1_dropShadow_977_174"/>
<feBlend mode="normal" in="SourceGraphic" in2="effect1_dropShadow_977_174" result="shape"/>
</filter>
<clipPath id="clip0_977_174">
<rect width="84" height="26" fill="white"/>
</clipPath>
</defs>
</svg>
