<svg width="65" height="26" viewBox="0 0 65 26" fill="none" xmlns="http://www.w3.org/2000/svg">
<g clip-path="url(#clip0_977_223)">
<path d="M11.0718 19.4797C10.479 20.2793 9.69065 20.9175 8.78043 21.3349C7.86542 21.7016 6.88445 21.8809 5.89712 21.8618C5.05156 21.8755 4.21262 21.7125 3.43532 21.3836C2.73327 21.0849 2.10125 20.6463 1.57889 20.0952C1.06545 19.5387 0.669145 18.887 0.413006 18.178C0.135446 17.4231 -0.00423243 16.6256 0.000465162 15.8225C-0.00956352 14.987 0.142653 14.1573 0.44888 13.3784C0.725901 12.6623 1.14864 12.0098 1.69099 11.4613C2.22916 10.9245 2.87323 10.5025 3.5833 10.2215C4.34122 9.92032 5.15191 9.76986 5.96887 9.77875C6.73534 9.77148 7.49622 9.90822 8.21094 10.1817C8.8766 10.4431 9.47537 10.8468 9.96425 11.3639C10.4711 11.9088 10.8561 12.553 11.0943 13.2545C11.3715 14.0733 11.5064 14.9326 11.4933 15.7959V16.4114H2.07663C2.10814 16.8998 2.2297 17.3785 2.43535 17.8238C2.63374 18.2604 2.90849 18.6591 3.24699 19.0015C3.58111 19.3396 3.9786 19.6103 4.41735 19.7985C4.87876 20.0006 5.37895 20.1018 5.88367 20.0952C6.62222 20.1183 7.35565 19.9665 8.02261 19.6524C8.63121 19.332 9.16449 18.8885 9.58758 18.3507L11.0718 19.4797ZM9.40373 14.7908C9.40796 14.3538 9.32455 13.9203 9.15831 13.5153C8.99208 13.1103 8.7463 12.7417 8.43515 12.4309C8.09244 12.1249 7.69165 11.8891 7.25599 11.7371C6.82033 11.5851 6.35846 11.5199 5.89712 11.5454C4.9583 11.4854 4.03319 11.7919 3.32109 12.399C2.60899 13.006 2.16691 13.865 2.09008 14.7908H9.40373Z" fill="#F8F8F8"/>
<path d="M21.7888 12.949C21.4265 12.4976 20.967 12.1316 20.4436 11.8775C19.9442 11.6522 19.4006 11.5388 18.8517 11.5454C18.2618 11.5342 17.6763 11.6474 17.1342 11.8775C16.6557 12.0847 16.2333 12.4002 15.9011 12.7984C15.5733 13.2039 15.3253 13.6664 15.1702 14.1621C15.0002 14.6995 14.9155 15.2596 14.9191 15.8225C14.9169 16.3867 15.014 16.947 15.2061 17.4784C15.3883 17.9761 15.6586 18.4378 16.0042 18.8421C16.3405 19.2343 16.76 19.5487 17.2329 19.7631C17.7413 19.9897 18.2939 20.103 18.8517 20.0952C19.4265 20.1217 19.9988 20.005 20.516 19.7559C21.0332 19.5068 21.4786 19.1331 21.8112 18.6695L23.2551 20.0199C22.7172 20.6399 22.0336 21.1203 21.2641 21.419C19.6944 22.0094 17.9596 22.0094 16.3899 21.419C15.6698 21.1433 15.0194 20.7157 14.4841 20.166C13.9551 19.6131 13.5408 18.9633 13.2644 18.2533C12.9645 17.4772 12.8125 16.6531 12.816 15.8225C12.813 14.9991 12.965 14.1823 13.2644 13.4139C13.5409 12.6995 13.9603 12.0475 14.4976 11.4967C15.0372 10.95 15.6863 10.5203 16.4033 10.2348C17.1811 9.92665 18.0137 9.77608 18.8517 9.79204C19.6887 9.78701 20.5192 9.9372 21.3 10.2348C22.0747 10.5302 22.7687 11.0002 23.3269 11.6074L21.7888 12.949Z" fill="#F8F8F8"/>
<path d="M26.6182 3H24.6765V21.5695H26.6182V3Z" fill="#F8F8F8"/>
<path d="M29.3267 11.5454C29.923 10.9458 30.6522 10.4911 31.4567 10.2171C32.2573 9.92895 33.1022 9.77917 33.9544 9.77435C35.6793 9.77435 36.9229 10.1758 37.6852 10.9787C38.4475 11.7816 38.8287 13.0006 38.8287 14.6359V19.5727C38.8287 19.9004 38.8287 20.2413 38.878 20.5955C38.9273 20.9497 38.9542 21.2685 39.0035 21.5652H37.1381C37.0678 21.275 37.0302 20.978 37.026 20.6796C37.026 20.3609 37.026 20.0775 37.026 19.8295H36.9767C36.5905 20.4262 36.0665 20.9239 35.4476 21.2818C34.7474 21.6735 33.9517 21.868 33.1472 21.8441C32.5805 21.8474 32.0161 21.7729 31.4702 21.6227C30.9771 21.4921 30.5132 21.2713 30.1025 20.9719C29.7138 20.6905 29.3949 20.3256 29.1698 19.9048C28.9294 19.4502 28.8091 18.9431 28.82 18.4304C28.772 17.6188 29.0381 16.8196 29.5644 16.1944C30.0716 15.6493 30.708 15.237 31.4164 14.9945C32.1863 14.7228 32.9906 14.5574 33.8064 14.5031C34.6584 14.4367 35.4431 14.4012 36.1561 14.4012H36.905V14.0603C36.93 13.7093 36.8749 13.3572 36.7437 13.0299C36.6126 12.7027 36.4087 12.4088 36.1471 12.1697C35.5393 11.7081 34.7825 11.4799 34.0172 11.5277C33.3868 11.5295 32.761 11.6342 32.1652 11.8376C31.5686 12.0365 31.0215 12.3579 30.5599 12.7807L29.3267 11.5454ZM34.9409 16.0395C33.9279 15.9966 32.9177 16.1735 31.9814 16.5575C31.6464 16.6973 31.3624 16.9344 31.1669 17.2372C30.9715 17.5401 30.874 17.8944 30.8872 18.2533C30.8591 18.5499 30.9121 18.8484 31.0407 19.1179C31.1692 19.3874 31.3687 19.6178 31.6181 19.7853C32.1729 20.1017 32.8076 20.2553 33.4477 20.228C33.9559 20.2399 34.4606 20.1432 34.9274 19.9447C35.3302 19.7726 35.691 19.5175 35.9857 19.1964C36.2733 18.8785 36.4929 18.5065 36.6314 18.1027C36.7818 17.6749 36.8665 17.2271 36.8825 16.7745V16.035L34.9409 16.0395Z" fill="#F8F8F8"/>
<path d="M43.5059 14.7864H41.5643V21.5652H43.5059V14.7864Z" fill="#F8F8F8"/>
<g filter="url(#filter0_d_977_223)">
<path d="M41.5218 0H43.54C43.5405 0.993474 43.3421 1.97731 42.956 2.89527C42.57 3.81323 42.0038 4.6473 41.29 5.34979C40.5761 6.05228 39.7286 6.60942 38.7958 6.98935C37.863 7.36928 36.8633 7.56455 35.8537 7.56399V5.57792C37.3511 5.5593 38.7818 4.96565 39.8407 3.92359C40.8996 2.88154 41.5029 1.47357 41.5218 0Z" fill="url(#paint0_linear_977_223)"/>
<path d="M43.5527 0H41.5302C41.5302 2.0061 42.34 3.93003 43.7815 5.34855C45.2229 6.76708 47.178 7.56399 49.2165 7.56399V5.57792C47.7195 5.55928 46.2892 4.96548 45.231 3.92332C44.1728 2.88115 43.5705 1.47318 43.5527 0Z" fill="url(#paint1_linear_977_223)"/>
<path d="M43.5527 13.1765H41.5302C41.5302 11.1633 42.34 9.23256 43.7815 7.80902C45.2229 6.38549 47.178 5.58575 49.2165 5.58575V7.57885C47.7192 7.59648 46.2883 8.19202 45.2298 9.2381C44.1714 10.2842 43.5694 11.6977 43.5527 13.1765Z" fill="url(#paint2_linear_977_223)"/>
<path d="M41.5218 13.1765H43.5399C43.5405 12.1795 43.3421 11.1922 42.956 10.271C42.5699 9.34977 42.0038 8.51276 41.2899 7.80778C40.5761 7.10281 39.7285 6.5437 38.7958 6.16243C37.863 5.78116 36.8632 5.5852 35.8537 5.58576V7.57885C37.3514 7.59646 38.7828 8.19186 39.8419 9.23783C40.901 10.2838 41.5039 11.6974 41.5218 13.1765Z" fill="url(#paint3_linear_977_223)"/>
</g>
<path d="M46.3666 14.7908C46.3666 9.7123 51.6265 9.55733 52.8821 9.9204L52.761 11.8597C52.4217 11.7613 52.0698 11.7121 51.7162 11.7136C50.5205 11.7136 49.6535 12.0944 49.1154 12.8559C48.528 13.7931 48.2462 14.8858 48.3083 15.9863V21.5872H46.3666V14.7908Z" fill="#F8F8F8"/>
<path d="M64.0878 19.4798C63.495 20.2793 62.7067 20.9175 61.7964 21.3349C60.8814 21.7017 59.9005 21.8809 58.9131 21.8618C58.0676 21.8751 57.2287 21.7122 56.4513 21.3836C55.75 21.086 55.1192 20.6472 54.5994 20.0952C54.0831 19.54 53.6851 18.8881 53.429 18.178C53.1515 17.4231 53.0118 16.6256 53.0165 15.8225C53.009 14.9872 53.1611 14.1581 53.4649 13.3785C53.7436 12.6632 54.1661 12.011 54.707 11.4613C55.2452 10.9245 55.8892 10.5025 56.5993 10.2215C57.3587 9.92 58.1709 9.76953 58.9894 9.77878C59.7559 9.77129 60.5168 9.90804 61.2314 10.1817C61.8977 10.4419 62.4967 10.8458 62.9847 11.3639C63.4916 11.9088 63.8766 12.553 64.1147 13.2545C64.392 14.0734 64.5269 14.9326 64.5138 15.796V16.4114H55.1195C55.192 17.3831 55.6059 18.2993 56.2899 19.0016C56.624 19.3396 57.0215 19.6103 57.4603 19.7985C57.9217 20.0006 58.4219 20.1018 58.9266 20.0952C59.6652 20.1189 60.3987 19.967 61.0655 19.6524C61.6741 19.3321 62.2074 18.8885 62.6305 18.3507L64.0878 19.4798ZM62.4197 14.7909C62.425 14.3537 62.342 13.9199 62.1757 13.5148C62.0094 13.1096 61.7631 12.7412 61.4512 12.4309C61.1084 12.1249 60.7077 11.8891 60.272 11.7371C59.8363 11.5851 59.3745 11.5199 58.9131 11.5454C57.9743 11.4854 57.0492 11.792 56.3371 12.399C55.625 13.0061 55.1829 13.8651 55.1061 14.7909H62.4197Z" fill="#F8F8F8"/>
</g>
<defs>
<filter id="filter0_d_977_223" x="29.8533" y="-6.00043" width="25.3636" height="25.1773" filterUnits="userSpaceOnUse" color-interpolation-filters="sRGB">
<feFlood flood-opacity="0" result="BackgroundImageFix"/>
<feColorMatrix in="SourceAlpha" type="matrix" values="0 0 0 0 0 0 0 0 0 0 0 0 0 0 0 0 0 0 127 0" result="hardAlpha"/>
<feOffset/>
<feGaussianBlur stdDeviation="3.00022"/>
<feComposite in2="hardAlpha" operator="out"/>
<feColorMatrix type="matrix" values="0 0 0 0 0.054902 0 0 0 0 0.647059 0 0 0 0 0.913725 0 0 0 0.5 0"/>
<feBlend mode="normal" in2="BackgroundImageFix" result="effect1_dropShadow_977_223"/>
<feBlend mode="normal" in="SourceGraphic" in2="effect1_dropShadow_977_223" result="shape"/>
</filter>
<linearGradient id="paint0_linear_977_223" x1="42.956" y1="1.59031" x2="35.5917" y2="5.45482" gradientUnits="userSpaceOnUse">
<stop stop-color="#1F41EB"/>
<stop offset="1" stop-color="#12BDF1"/>
</linearGradient>
<linearGradient id="paint1_linear_977_223" x1="47.8585" y1="6.06723" x2="42.8649" y2="0.761685" gradientUnits="userSpaceOnUse">
<stop stop-color="#1F41EB"/>
<stop offset="1" stop-color="#12BDF1"/>
</linearGradient>
<linearGradient id="paint2_linear_977_223" x1="45.7327" y1="12.8993" x2="45.6416" y2="5.87826" gradientUnits="userSpaceOnUse">
<stop stop-color="#1F41EB"/>
<stop offset="0.985" stop-color="#12BDF1"/>
</linearGradient>
<linearGradient id="paint3_linear_977_223" x1="36.6142" y1="8.57928" x2="45.1471" y2="13.2909" gradientUnits="userSpaceOnUse">
<stop stop-color="#1F41EB"/>
<stop offset="0.985" stop-color="#12BDF1"/>
</linearGradient>
<clipPath id="clip0_977_223">
<rect width="65" height="26" fill="white"/>
</clipPath>
</defs>
</svg>
