<svg width="18" height="18" viewBox="0 0 18 18" fill="none" xmlns="http://www.w3.org/2000/svg">
<circle cx="9" cy="9" r="9" fill="#0076B2"/>
<path d="M5.14832 6.99072H7.01362L7.01362 13H5.14832L5.14832 6.99072ZM6.08148 4C6.29542 4 6.50456 4.06353 6.68243 4.18256C6.8603 4.30159 6.99892 4.47077 7.08074 4.6687C7.16257 4.86662 7.18392 5.0844 7.14211 5.29448C7.1003 5.50456 6.99719 5.6975 6.84584 5.8489C6.69449 6.0003 6.50169 6.10335 6.29184 6.14501C6.08198 6.18668 5.8645 6.16509 5.6669 6.08297C5.46931 6.00085 5.30047 5.8619 5.18176 5.68369C5.06305 5.50548 4.9998 5.29603 5 5.08182C5.00027 4.79481 5.11434 4.51964 5.31712 4.31679C5.51991 4.11394 5.79483 4 6.08148 4ZM8.18368 6.99072H9.97173V7.81574H9.99645C10.2457 7.34342 10.8534 6.84531 11.7608 6.84531C13.6498 6.84118 14 8.08594 14 9.6999L14 13L12.1347 13V10.0763C12.1347 9.3802 12.1223 8.48401 11.1655 8.48401C10.2086 8.48401 10.0459 9.24304 10.0459 10.0309V13H8.18368V6.99072Z" fill="white"/>
</svg>
